{"sha256": "bc642fa39629de6c2415851d8b363a50710fe8da5605be101728b025195d98ea", "stored_path": "C:\\Users\\jinoh\\Downloads\\personal projects\\Blackline-AI-Forensic-Tool-for-Detecting-Deepfake-and-Synthetic-Media\\data\\raw\\bc642fa39629de6c2415851d8b363a50710fe8da5605be101728b025195d98ea\\aassnaulhq.mp4", "mime": "video/mp4", "probe": {"streams": [{"index": 0, "codec_name": "h264", "codec_long_name": "H.264 / AVC / MPEG-4 AVC / MPEG-4 part 10", "profile": "High", "codec_type": "video", "codec_tag_string": "avc1", "codec_tag": "0x31637661", "width": 1920, "height": 1080, "coded_width": 1920, "coded_height": 1080, "closed_captions": 0, "film_grain": 0, "has_b_frames": 2, "sample_aspect_ratio": "1:1", "display_aspect_ratio": "16:9", "pix_fmt": "yuv420p", "level": 40, "chroma_location": "left", "field_order": "progressive", "refs": 1, "is_avc": "true", "nal_length_size": "4", "id": "0x1", "r_frame_rate": "298799/10000", "avg_frame_rate": "298799/10000", "time_base": "1/298799", "start_pts": 0, "start_time": "0.000000", "duration_ts": 2990000, "duration": "10.006727", "bit_rate": "5506817", "bits_per_raw_sample": "8", "nb_frames": "299", "extradata_size": 42, "disposition": {"default": 1, "dub": 0, "original": 0, "comment": 0, "lyrics": 0, "karaoke": 0, "forced": 0, "hearing_impaired": 0, "visual_impaired": 0, "clean_effects": 0, "attached_pic": 0, "timed_thumbnails": 0, "non_diegetic": 0, "captions": 0, "descriptions": 0, "metadata": 0, "dependent": 0, "still_image": 0, "multilayer": 0}, "tags": {"language": "und", "handler_name": "VideoHandler", "vendor_id": "[0][0][0][0]"}}, {"index": 1, "codec_name": "aac", "codec_long_name": "AAC (Advanced Audio Coding)", "profile": "LC", "codec_type": "audio", "codec_tag_string": "mp4a", "codec_tag": "0x6134706d", "sample_fmt": "fltp", "sample_rate": "48000", "channels": 1, "channel_layout": "mono", "bits_per_sample": 0, "initial_padding": 0, "id": "0x2", "r_frame_rate": "0/0", "avg_frame_rate": "0/0", "time_base": "1/48000", "start_pts": 0, "start_time": "0.000000", "duration_ts": 480000, "duration": "10.000000", "bit_rate": "69280", "nb_frames": "470", "extradata_size": 5, "disposition": {"default": 1, "dub": 0, "original": 0, "comment": 0, "lyrics": 0, "karaoke": 0, "forced": 0, "hearing_impaired": 0, "visual_impaired": 0, "clean_effects": 0, "attached_pic": 0, "timed_thumbnails": 0, "non_diegetic": 0, "captions": 0, "descriptions": 0, "metadata": 0, "dependent": 0, "still_image": 0, "multilayer": 0}, "tags": {"language": "und", "handler_name": "SoundHandler", "vendor_id": "[0][0][0][0]"}}], "format": {"filename": "C:\\Users\\jinoh\\Downloads\\personal projects\\Blackline-AI-Forensic-Tool-for-Detecting-Deepfake-and-Synthetic-Media\\data\\raw\\bc642fa39629de6c2415851d8b363a50710fe8da5605be101728b025195d98ea\\aassnaulhq.mp4", "nb_streams": 2, "nb_programs": 0, "nb_stream_groups": 0, "format_name": "mov,mp4,m4a,3gp,3g2,mj2", "format_long_name": "QuickTime / MOV", "start_time": "0.000000", "duration": "10.006727", "size": "6987195", "bit_rate": "5585998", "probe_score": 100, "tags": {"major_brand": "isom", "minor_version": "512", "compatible_brands": "isomiso2avc1mp41", "encoder": "Lavf57.71.100"}}}, "exif": {"SourceFile": "C:/Users/jinoh/Downloads/personal projects/Blackline-AI-Forensic-Tool-for-Detecting-Deepfake-and-Synthetic-Media/data/raw/bc642fa39629de6c2415851d8b363a50710fe8da5605be101728b025195d98ea/aassnaulhq.mp4", "ExifToolVersion": 13.34, "FileName": "aassnaulhq.mp4", "Directory": "C:/Users/jinoh/Downloads/personal projects/Blackline-AI-Forensic-Tool-for-Detecting-Deepfake-and-Synthetic-Media/data/raw/bc642fa39629de6c2415851d8b363a50710fe8da5605be101728b025195d98ea", "FileSize": 6987195, "ZoneIdentifier": "Exists", "FileModifyDate": "2025:08:19 19:54:09+10:00", "FileAccessDate": "2025:08:20 23:06:11+10:00", "FileCreateDate": "2025:08:20 17:45:43+10:00", "FilePermissions": 100666, "FileType": "MP4", "FileTypeExtension": "MP4", "MIMEType": "video/mp4", "MajorBrand": "isom", "MinorVersion": "0.2.0", "CompatibleBrands": ["isom", "iso2", "avc1", "mp41"], "MediaDataSize": 6974937, "MediaDataOffset": 48, "MovieHeaderVersion": 0, "CreateDate": "0000:00:00 00:00:00", "ModifyDate": "0000:00:00 00:00:00", "TimeScale": 1000, "Duration": 10.022, "PreferredRate": 1, "PreferredVolume": 1, "PreviewTime": 0, "PreviewDuration": 0, "PosterTime": 0, "SelectionTime": 0, "SelectionDuration": 0, "CurrentTime": 0, "NextTrackID": 3, "TrackHeaderVersion": 0, "TrackCreateDate": "0000:00:00 00:00:00", "TrackModifyDate": "0000:00:00 00:00:00", "TrackID": 1, "TrackDuration": 10.007, "TrackLayer": 0, "TrackVolume": 0, "ImageWidth": 1920, "ImageHeight": 1080, "GraphicsMode": 0, "OpColor": "0 0 0", "CompressorID": "avc1", "SourceImageWidth": 1920, "SourceImageHeight": 1080, "XResolution": 72, "YResolution": 72, "BitDepth": 24, "PixelAspectRatio": "1:1", "VideoFrameRate": 29.8799, "MatrixStructure": "1 0 0 0 1 0 0 0 1", "MediaHeaderVersion": 0, "MediaCreateDate": "0000:00:00 00:00:00", "MediaModifyDate": "0000:00:00 00:00:00", "MediaTimeScale": 48000, "MediaDuration": 10.0213333333333, "MediaLanguageCode": "und", "HandlerDescription": "SoundHandler", "Balance": 0, "AudioFormat": "mp4a", "AudioChannels": 2, "AudioBitsPerSample": 16, "AudioSampleRate": 48000, "HandlerType": "mdir", "HandlerVendorID": "appl", "Encoder": "Lavf57.71.100", "ImageSize": "1920 1080", "Megapixels": 2.0736, "AvgBitrate": 5567701, "Rotation": 0}, "summary": {"width": 1920, "height": 1080, "fps": 29.8799, "codec": "h264", "duration_s": 10.006727, "nb_streams": 2}, "when": "2025-08-20T13:06:12Z", "tool_versions": {"ingest": "ingest.v2"}}
{"sha256": "da7683e58ebd3684b21ea4815bf9bd3484ffebebe47484489da7c1df5e356f82", "stored_path": "C:\\Users\\jinoh\\Downloads\\personal projects\\Blackline-AI-Forensic-Tool-for-Detecting-Deepfake-and-Synthetic-Media\\data\\raw\\da7683e58ebd3684b21ea4815bf9bd3484ffebebe47484489da7c1df5e356f82\\aayfryxljh.mp4", "mime": "video/mp4", "probe": {"streams": [{"index": 0, "codec_name": "h264", "codec_long_name": "H.264 / AVC / MPEG-4 AVC / MPEG-4 part 10", "profile": "High", "codec_type": "video", "codec_tag_string": "avc1", "codec_tag": "0x31637661", "width": 1920, "height": 1080, "coded_width": 1920, "coded_height": 1080, "closed_captions": 0, "film_grain": 0, "has_b_frames": 2, "pix_fmt": "yuv420p", "level": 40, "chroma_location": "left", "field_order": "progressive", "refs": 1, "is_avc": "true", "nal_length_size": "4", "id": "0x1", "r_frame_rate": "299687/10000", "avg_frame_rate": "299687/10000", "time_base": "1/299687", "start_pts": 0, "start_time": "0.000000", "duration_ts": 3000000, "duration": "10.010444", "bit_rate": "8003636", "bits_per_raw_sample": "8", "nb_frames": "300", "extradata_size": 41, "disposition": {"default": 1, "dub": 0, "original": 0, "comment": 0, "lyrics": 0, "karaoke": 0, "forced": 0, "hearing_impaired": 0, "visual_impaired": 0, "clean_effects": 0, "attached_pic": 0, "timed_thumbnails": 0, "non_diegetic": 0, "captions": 0, "descriptions": 0, "metadata": 0, "dependent": 0, "still_image": 0, "multilayer": 0}, "tags": {"language": "und", "handler_name": "VideoHandler", "vendor_id": "[0][0][0][0]"}}, {"index": 1, "codec_name": "aac", "codec_long_name": "AAC (Advanced Audio Coding)", "profile": "LC", "codec_type": "audio", "codec_tag_string": "mp4a", "codec_tag": "0x6134706d", "sample_fmt": "fltp", "sample_rate": "44100", "channels": 1, "channel_layout": "mono", "bits_per_sample": 0, "initial_padding": 0, "id": "0x2", "r_frame_rate": "0/0", "avg_frame_rate": "0/0", "time_base": "1/44100", "start_pts": 0, "start_time": "0.000000", "duration_ts": 441000, "duration": "10.000000", "bit_rate": "69320", "nb_frames": "432", "extradata_size": 5, "disposition": {"default": 1, "dub": 0, "original": 0, "comment": 0, "lyrics": 0, "karaoke": 0, "forced": 0, "hearing_impaired": 0, "visual_impaired": 0, "clean_effects": 0, "attached_pic": 0, "timed_thumbnails": 0, "non_diegetic": 0, "captions": 0, "descriptions": 0, "metadata": 0, "dependent": 0, "still_image": 0, "multilayer": 0}, "tags": {"language": "und", "handler_name": "SoundHandler", "vendor_id": "[0][0][0][0]"}}], "format": {"filename": "C:\\Users\\jinoh\\Downloads\\personal projects\\Blackline-AI-Forensic-Tool-for-Detecting-Deepfake-and-Synthetic-Media\\data\\raw\\da7683e58ebd3684b21ea4815bf9bd3484ffebebe47484489da7c1df5e356f82\\aayfryxljh.mp4", "nb_streams": 2, "nb_programs": 0, "nb_stream_groups": 0, "format_name": "mov,mp4,m4a,3gp,3g2,mj2", "format_long_name": "QuickTime / MOV", "start_time": "0.000000", "duration": "10.010444", "size": "10114027", "bit_rate": "8082779", "probe_score": 100, "tags": {"major_brand": "isom", "minor_version": "512", "compatible_brands": "isomiso2avc1mp41", "encoder": "Lavf57.71.100"}}}, "exif": {"SourceFile": "C:/Users/jinoh/Downloads/personal projects/Blackline-AI-Forensic-Tool-for-Detecting-Deepfake-and-Synthetic-Media/data/raw/da7683e58ebd3684b21ea4815bf9bd3484ffebebe47484489da7c1df5e356f82/aayfryxljh.mp4", "ExifToolVersion": 13.34, "FileName": "aayfryxljh.mp4", "Directory": "C:/Users/jinoh/Downloads/personal projects/Blackline-AI-Forensic-Tool-for-Detecting-Deepfake-and-Synthetic-Media/data/raw/da7683e58ebd3684b21ea4815bf9bd3484ffebebe47484489da7c1df5e356f82", "FileSize": 10114027, "ZoneIdentifier": "Exists", "FileModifyDate": "2025:08:19 19:54:09+10:00", "FileAccessDate": "2025:08:20 23:06:12+10:00", "FileCreateDate": "2025:08:20 17:45:53+10:00", "FilePermissions": 100666, "FileType": "MP4", "FileTypeExtension": "MP4", "MIMEType": "video/mp4", "MajorBrand": "isom", "MinorVersion": "0.2.0", "CompatibleBrands": ["isom", "iso2", "avc1", "mp41"], "MediaDataSize": 10101846, "MediaDataOffset": 48, "MovieHeaderVersion": 0, "CreateDate": "0000:00:00 00:00:00", "ModifyDate": "0000:00:00 00:00:00", "TimeScale": 1000, "Duration": 10.024, "PreferredRate": 1, "PreferredVolume": 1, "PreviewTime": 0, "PreviewDuration": 0, "PosterTime": 0, "SelectionTime": 0, "SelectionDuration": 0, "CurrentTime": 0, "NextTrackID": 3, "TrackHeaderVersion": 0, "TrackCreateDate": "0000:00:00 00:00:00", "TrackModifyDate": "0000:00:00 00:00:00", "TrackID": 1, "TrackDuration": 10.011, "TrackLayer": 0, "TrackVolume": 0, "ImageWidth": 1920, "ImageHeight": 1080, "GraphicsMode": 0, "OpColor": "0 0 0", "CompressorID": "avc1", "SourceImageWidth": 1920, "SourceImageHeight": 1080, "XResolution": 72, "YResolution": 72, "BitDepth": 24, "VideoFrameRate": 29.9687, "MatrixStructure": "1 0 0 0 1 0 0 0 1", "MediaHeaderVersion": 0, "MediaCreateDate": "0000:00:00 00:00:00", "MediaModifyDate": "0000:00:00 00:00:00", "MediaTimeScale": 44100, "MediaDuration": 10.0232199546485, "MediaLanguageCode": "und", "HandlerDescription": "SoundHandler", "Balance": 0, "AudioFormat": "mp4a", "AudioChannels": 2, "AudioBitsPerSample": 16, "AudioSampleRate": 44100, "HandlerType": "mdir", "HandlerVendorID": "appl", "Encoder": "Lavf57.71.100", "ImageSize": "1920 1080", "Megapixels": 2.0736, "AvgBitrate": 8062128, "Rotation": 0}, "summary": {"width": 1920, "height": 1080, "fps": 29.9687, "codec": "h264", "duration_s": 10.010444, "nb_streams": 2}, "when": "2025-08-20T13:06:12Z", "tool_versions": {"ingest": "ingest.v2"}}
{"sha256": "80c85f3de6972eb63378b7c87cbc544092ae4706e215fce249d965952ecfbb42", "stored_path": "C:\\Users\\jinoh\\Downloads\\personal projects\\Blackline-AI-Forensic-Tool-for-Detecting-Deepfake-and-Synthetic-Media\\data\\raw\\80c85f3de6972eb63378b7c87cbc544092ae4706e215fce249d965952ecfbb42\\acazlolrpz.mp4", "mime": "video/mp4", "probe": {"streams": [{"index": 0, "codec_name": "h264", "codec_long_name": "H.264 / AVC / MPEG-4 AVC / MPEG-4 part 10", "profile": "High", "codec_type": "video", "codec_tag_string": "avc1", "codec_tag": "0x31637661", "width": 1920, "height": 1080, "coded_width": 1920, "coded_height": 1080, "closed_captions": 0, "film_grain": 0, "has_b_frames": 2, "sample_aspect_ratio": "1:1", "display_aspect_ratio": "16:9", "pix_fmt": "yuv420p", "level": 40, "chroma_location": "left", "field_order": "progressive", "refs": 1, "is_avc": "true", "nal_length_size": "4", "id": "0x1", "r_frame_rate": "299689/10000", "avg_frame_rate": "299689/10000", "time_base": "1/299689", "start_pts": 0, "start_time": "0.000000", "duration_ts": 3000000, "duration": "10.010377", "bit_rate": "3196149", "bits_per_raw_sample": "8", "nb_frames": "300", "extradata_size": 42, "disposition": {"default": 1, "dub": 0, "original": 0, "comment": 0, "lyrics": 0, "karaoke": 0, "forced": 0, "hearing_impaired": 0, "visual_impaired": 0, "clean_effects": 0, "attached_pic": 0, "timed_thumbnails": 0, "non_diegetic": 0, "captions": 0, "descriptions": 0, "metadata": 0, "dependent": 0, "still_image": 0, "multilayer": 0}, "tags": {"language": "und", "handler_name": "VideoHandler", "vendor_id": "[0][0][0][0]"}}, {"index": 1, "codec_name": "aac", "codec_long_name": "AAC (Advanced Audio Coding)", "profile": "LC", "codec_type": "audio", "codec_tag_string": "mp4a", "codec_tag": "0x6134706d", "sample_fmt": "fltp", "sample_rate": "44100", "channels": 1, "channel_layout": "mono", "bits_per_sample": 0, "initial_padding": 0, "id": "0x2", "r_frame_rate": "0/0", "avg_frame_rate": "0/0", "time_base": "1/44100", "start_pts": 0, "start_time": "0.000000", "duration_ts": 441000, "duration": "10.000000", "bit_rate": "69302", "nb_frames": "432", "extradata_size": 5, "disposition": {"default": 1, "dub": 0, "original": 0, "comment": 0, "lyrics": 0, "karaoke": 0, "forced": 0, "hearing_impaired": 0, "visual_impaired": 0, "clean_effects": 0, "attached_pic": 0, "timed_thumbnails": 0, "non_diegetic": 0, "captions": 0, "descriptions": 0, "metadata": 0, "dependent": 0, "still_image": 0, "multilayer": 0}, "tags": {"language": "und", "handler_name": "SoundHandler", "vendor_id": "[0][0][0][0]"}}], "format": {"filename": "C:\\Users\\jinoh\\Downloads\\personal projects\\Blackline-AI-Forensic-Tool-for-Detecting-Deepfake-and-Synthetic-Media\\data\\raw\\80c85f3de6972eb63378b7c87cbc544092ae4706e215fce249d965952ecfbb42\\acazlolrpz.mp4", "nb_streams": 2, "nb_programs": 0, "nb_stream_groups": 0, "format_name": "mov,mp4,m4a,3gp,3g2,mj2", "format_long_name": "QuickTime / MOV", "start_time": "0.000000", "duration": "10.010377", "size": "4098352", "bit_rate": "3275282", "probe_score": 100, "tags": {"major_brand": "isom", "minor_version": "512", "compatible_brands": "isomiso2avc1mp41", "encoder": "Lavf57.71.100"}}}, "exif": {"SourceFile": "C:/Users/jinoh/Downloads/personal projects/Blackline-AI-Forensic-Tool-for-Detecting-Deepfake-and-Synthetic-Media/data/raw/80c85f3de6972eb63378b7c87cbc544092ae4706e215fce249d965952ecfbb42/acazlolrpz.mp4", "ExifToolVersion": 13.34, "FileName": "acazlolrpz.mp4", "Directory": "C:/Users/jinoh/Downloads/personal projects/Blackline-AI-Forensic-Tool-for-Detecting-Deepfake-and-Synthetic-Media/data/raw/80c85f3de6972eb63378b7c87cbc544092ae4706e215fce249d965952ecfbb42", "FileSize": 4098352, "ZoneIdentifier": "Exists", "FileModifyDate": "2025:08:19 19:54:09+10:00", "FileAccessDate": "2025:08:20 23:06:12+10:00", "FileCreateDate": "2025:08:20 17:45:32+10:00", "FilePermissions": 100666, "FileType": "MP4", "FileTypeExtension": "MP4", "MIMEType": "video/mp4", "MajorBrand": "isom", "MinorVersion": "0.2.0", "CompatibleBrands": ["isom", "iso2", "avc1", "mp41"], "MediaDataSize": 4086162, "MediaDataOffset": 48, "MovieHeaderVersion": 0, "CreateDate": "0000:00:00 00:00:00", "ModifyDate": "0000:00:00 00:00:00", "TimeScale": 1000, "Duration": 10.024, "PreferredRate": 1, "PreferredVolume": 1, "PreviewTime": 0, "PreviewDuration": 0, "PosterTime": 0, "SelectionTime": 0, "SelectionDuration": 0, "CurrentTime": 0, "NextTrackID": 3, "TrackHeaderVersion": 0, "TrackCreateDate": "0000:00:00 00:00:00", "TrackModifyDate": "0000:00:00 00:00:00", "TrackID": 1, "TrackDuration": 10.011, "TrackLayer": 0, "TrackVolume": 0, "ImageWidth": 1920, "ImageHeight": 1080, "GraphicsMode": 0, "OpColor": "0 0 0", "CompressorID": "avc1", "SourceImageWidth": 1920, "SourceImageHeight": 1080, "XResolution": 72, "YResolution": 72, "BitDepth": 24, "PixelAspectRatio": "1:1", "VideoFrameRate": 29.9689, "MatrixStructure": "1 0 0 0 1 0 0 0 1", "MediaHeaderVersion": 0, "MediaCreateDate": "0000:00:00 00:00:00", "MediaModifyDate": "0000:00:00 00:00:00", "MediaTimeScale": 44100, "MediaDuration": 10.0232199546485, "MediaLanguageCode": "und", "HandlerDescription": "SoundHandler", "Balance": 0, "AudioFormat": "mp4a", "AudioChannels": 2, "AudioBitsPerSample": 16, "AudioSampleRate": 44100, "HandlerType": "mdir", "HandlerVendorID": "appl", "Encoder": "Lavf57.71.100", "ImageSize": "1920 1080", "Megapixels": 2.0736, "AvgBitrate": 3261103, "Rotation": 0}, "summary": {"width": 1920, "height": 1080, "fps": 29.9689, "codec": "h264", "duration_s": 10.010377, "nb_streams": 2}, "when": "2025-08-20T13:06:12Z", "tool_versions": {"ingest": "ingest.v2"}}
{"sha256": "103f42ba8f1288b835ae1e156922157ffe8fe9ca1244a5e9e46ddbe4e154fdf6", "stored_path": "C:\\Users\\jinoh\\Downloads\\personal projects\\Blackline-AI-Forensic-Tool-for-Detecting-Deepfake-and-Synthetic-Media\\data\\raw\\103f42ba8f1288b835ae1e156922157ffe8fe9ca1244a5e9e46ddbe4e154fdf6\\adohdulfwb.mp4", "mime": "video/mp4", "probe": {"streams": [{"index": 0, "codec_name": "h264", "codec_long_name": "H.264 / AVC / MPEG-4 AVC / MPEG-4 part 10", "profile": "High", "codec_type": "video", "codec_tag_string": "avc1", "codec_tag": "0x31637661", "width": 1920, "height": 1080, "coded_width": 1920, "coded_height": 1080, "closed_captions": 0, "film_grain": 0, "has_b_frames": 2, "pix_fmt": "yuv420p", "level": 40, "chroma_location": "left", "field_order": "progressive", "refs": 1, "is_avc": "true", "nal_length_size": "4", "id": "0x1", "r_frame_rate": "2997/100", "avg_frame_rate": "2997/100", "time_base": "1/11988", "start_pts": 0, "start_time": "0.000000", "duration_ts": 120000, "duration": "10.010010", "bit_rate": "2906986", "bits_per_raw_sample": "8", "nb_frames": "300", "extradata_size": 42, "disposition": {"default": 1, "dub": 0, "original": 0, "comment": 0, "lyrics": 0, "karaoke": 0, "forced": 0, "hearing_impaired": 0, "visual_impaired": 0, "clean_effects": 0, "attached_pic": 0, "timed_thumbnails": 0, "non_diegetic": 0, "captions": 0, "descriptions": 0, "metadata": 0, "dependent": 0, "still_image": 0, "multilayer": 0}, "tags": {"language": "und", "handler_name": "VideoHandler", "vendor_id": "[0][0][0][0]"}}, {"index": 1, "codec_name": "aac", "codec_long_name": "AAC (Advanced Audio Coding)", "profile": "LC", "codec_type": "audio", "codec_tag_string": "mp4a", "codec_tag": "0x6134706d", "sample_fmt": "fltp", "sample_rate": "48000", "channels": 1, "channel_layout": "mono", "bits_per_sample": 0, "initial_padding": 0, "id": "0x2", "r_frame_rate": "0/0", "avg_frame_rate": "0/0", "time_base": "1/48000", "start_pts": 0, "start_time": "0.000000", "duration_ts": 480000, "duration": "10.000000", "bit_rate": "69368", "nb_frames": "470", "extradata_size": 5, "disposition": {"default": 1, "dub": 0, "original": 0, "comment": 0, "lyrics": 0, "karaoke": 0, "forced": 0, "hearing_impaired": 0, "visual_impaired": 0, "clean_effects": 0, "attached_pic": 0, "timed_thumbnails": 0, "non_diegetic": 0, "captions": 0, "descriptions": 0, "metadata": 0, "dependent": 0, "still_image": 0, "multilayer": 0}, "tags": {"language": "und", "handler_name": "SoundHandler", "vendor_id": "[0][0][0][0]"}}], "format": {"filename": "C:\\Users\\jinoh\\Downloads\\personal projects\\Blackline-AI-Forensic-Tool-for-Detecting-Deepfake-and-Synthetic-Media\\data\\raw\\103f42ba8f1288b835ae1e156922157ffe8fe9ca1244a5e9e46ddbe4e154fdf6\\adohdulfwb.mp4", "nb_streams": 2, "nb_programs": 0, "nb_stream_groups": 0, "format_name": "mov,mp4,m4a,3gp,3g2,mj2", "format_long_name": "QuickTime / MOV", "start_time": "0.000000", "duration": "10.010010", "size": "3736581", "bit_rate": "2986275", "probe_score": 100, "tags": {"major_brand": "isom", "minor_version": "512", "compatible_brands": "isomiso2avc1mp41", "encoder": "Lavf57.71.100"}}}, "exif": {"SourceFile": "C:/Users/jinoh/Downloads/personal projects/Blackline-AI-Forensic-Tool-for-Detecting-Deepfake-and-Synthetic-Media/data/raw/103f42ba8f1288b835ae1e156922157ffe8fe9ca1244a5e9e46ddbe4e154fdf6/adohdulfwb.mp4", "ExifToolVersion": 13.34, "FileName": "adohdulfwb.mp4", "Directory": "C:/Users/jinoh/Downloads/personal projects/Blackline-AI-Forensic-Tool-for-Detecting-Deepfake-and-Synthetic-Media/data/raw/103f42ba8f1288b835ae1e156922157ffe8fe9ca1244a5e9e46ddbe4e154fdf6", "FileSize": 3736581, "ZoneIdentifier": "Exists", "FileModifyDate": "2025:08:19 19:54:09+10:00", "FileAccessDate": "2025:08:20 23:06:12+10:00", "FileCreateDate": "2025:08:20 17:45:15+10:00", "FilePermissions": 100666, "FileType": "MP4", "FileTypeExtension": "MP4", "MIMEType": "video/mp4", "MajorBrand": "isom", "MinorVersion": "0.2.0", "CompatibleBrands": ["isom", "iso2", "avc1", "mp41"], "MediaDataSize": 3724267, "MediaDataOffset": 48, "MovieHeaderVersion": 0, "CreateDate": "0000:00:00 00:00:00", "ModifyDate": "0000:00:00 00:00:00", "TimeScale": 1000, "Duration": 10.022, "PreferredRate": 1, "PreferredVolume": 1, "PreviewTime": 0, "PreviewDuration": 0, "PosterTime": 0, "SelectionTime": 0, "SelectionDuration": 0, "CurrentTime": 0, "NextTrackID": 3, "TrackHeaderVersion": 0, "TrackCreateDate": "0000:00:00 00:00:00", "TrackModifyDate": "0000:00:00 00:00:00", "TrackID": 1, "TrackDuration": 10.011, "TrackLayer": 0, "TrackVolume": 0, "ImageWidth": 1920, "ImageHeight": 1080, "GraphicsMode": 0, "OpColor": "0 0 0", "CompressorID": "avc1", "SourceImageWidth": 1920, "SourceImageHeight": 1080, "XResolution": 72, "YResolution": 72, "BitDepth": 24, "VideoFrameRate": 29.97, "MatrixStructure": "1 0 0 0 1 0 0 0 1", "MediaHeaderVersion": 0, "MediaCreateDate": "0000:00:00 00:00:00", "MediaModifyDate": "0000:00:00 00:00:00", "MediaTimeScale": 48000, "MediaDuration": 10.0213333333333, "MediaLanguageCode": "und", "HandlerDescription": "SoundHandler", "Balance": 0, "AudioFormat": "mp4a", "AudioChannels": 2, "AudioBitsPerSample": 16, "AudioSampleRate": 48000, "HandlerType": "mdir", "HandlerVendorID": "appl", "Encoder": "Lavf57.71.100", "ImageSize": "1920 1080", "Megapixels": 2.0736, "AvgBitrate": 2972873, "Rotation": 0}, "summary": {"width": 1920, "height": 1080, "fps": 29.97, "codec": "h264", "duration_s": 10.01001, "nb_streams": 2}, "when": "2025-08-20T13:06:13Z", "tool_versions": {"ingest": "ingest.v2"}}
{"sha256": "06d77f61e5eb60923f374ad3332a0ff6d5e5cc115991e5f8e67ce9391c6106ea", "stored_path": "C:\\Users\\jinoh\\Downloads\\personal projects\\Blackline-AI-Forensic-Tool-for-Detecting-Deepfake-and-Synthetic-Media\\data\\raw\\06d77f61e5eb60923f374ad3332a0ff6d5e5cc115991e5f8e67ce9391c6106ea\\ahjnxtiamx.mp4", "mime": "video/mp4", "probe": {"streams": [{"index": 0, "codec_name": "h264", "codec_long_name": "H.264 / AVC / MPEG-4 AVC / MPEG-4 part 10", "profile": "High", "codec_type": "video", "codec_tag_string": "avc1", "codec_tag": "0x31637661", "width": 1920, "height": 1080, "coded_width": 1920, "coded_height": 1080, "closed_captions": 0, "film_grain": 0, "has_b_frames": 2, "sample_aspect_ratio": "1:1", "display_aspect_ratio": "16:9", "pix_fmt": "yuv420p", "level": 40, "chroma_location": "left", "field_order": "progressive", "refs": 1, "is_avc": "true", "nal_length_size": "4", "id": "0x1", "r_frame_rate": "59937/2000", "avg_frame_rate": "59937/2000", "time_base": "1/59937", "start_pts": 0, "start_time": "0.000000", "duration_ts": 600000, "duration": "10.010511", "bit_rate": "3325025", "bits_per_raw_sample": "8", "nb_frames": "300", "extradata_size": 42, "disposition": {"default": 1, "dub": 0, "original": 0, "comment": 0, "lyrics": 0, "karaoke": 0, "forced": 0, "hearing_impaired": 0, "visual_impaired": 0, "clean_effects": 0, "attached_pic": 0, "timed_thumbnails": 0, "non_diegetic": 0, "captions": 0, "descriptions": 0, "metadata": 0, "dependent": 0, "still_image": 0, "multilayer": 0}, "tags": {"language": "und", "handler_name": "VideoHandler", "vendor_id": "[0][0][0][0]"}}, {"index": 1, "codec_name": "aac", "codec_long_name": "AAC (Advanced Audio Coding)", "profile": "LC", "codec_type": "audio", "codec_tag_string": "mp4a", "codec_tag": "0x6134706d", "sample_fmt": "fltp", "sample_rate": "44100", "channels": 1, "channel_layout": "mono", "bits_per_sample": 0, "initial_padding": 0, "id": "0x2", "r_frame_rate": "0/0", "avg_frame_rate": "0/0", "time_base": "1/44100", "start_pts": 0, "start_time": "0.000000", "duration_ts": 441000, "duration": "10.000000", "bit_rate": "69410", "nb_frames": "432", "extradata_size": 5, "disposition": {"default": 1, "dub": 0, "original": 0, "comment": 0, "lyrics": 0, "karaoke": 0, "forced": 0, "hearing_impaired": 0, "visual_impaired": 0, "clean_effects": 0, "attached_pic": 0, "timed_thumbnails": 0, "non_diegetic": 0, "captions": 0, "descriptions": 0, "metadata": 0, "dependent": 0, "still_image": 0, "multilayer": 0}, "tags": {"language": "und", "handler_name": "SoundHandler", "vendor_id": "[0][0][0][0]"}}], "format": {"filename": "C:\\Users\\jinoh\\Downloads\\personal projects\\Blackline-AI-Forensic-Tool-for-Detecting-Deepfake-and-Synthetic-Media\\data\\raw\\06d77f61e5eb60923f374ad3332a0ff6d5e5cc115991e5f8e67ce9391c6106ea\\ahjnxtiamx.mp4", "nb_streams": 2, "nb_programs": 0, "nb_stream_groups": 0, "format_name": "mov,mp4,m4a,3gp,3g2,mj2", "format_long_name": "QuickTime / MOV", "start_time": "0.000000", "duration": "10.010511", "size": "4259685", "bit_rate": "3404169", "probe_score": 100, "tags": {"major_brand": "isom", "minor_version": "512", "compatible_brands": "isomiso2avc1mp41", "encoder": "Lavf57.71.100"}}}, "exif": {"SourceFile": "C:/Users/jinoh/Downloads/personal projects/Blackline-AI-Forensic-Tool-for-Detecting-Deepfake-and-Synthetic-Media/data/raw/06d77f61e5eb60923f374ad3332a0ff6d5e5cc115991e5f8e67ce9391c6106ea/ahjnxtiamx.mp4", "ExifToolVersion": 13.34, "FileName": "ahjnxtiamx.mp4", "Directory": "C:/Users/jinoh/Downloads/personal projects/Blackline-AI-Forensic-Tool-for-Detecting-Deepfake-and-Synthetic-Media/data/raw/06d77f61e5eb60923f374ad3332a0ff6d5e5cc115991e5f8e67ce9391c6106ea", "FileSize": 4259685, "ZoneIdentifier": "Exists", "FileModifyDate": "2025:08:19 19:54:09+10:00", "FileAccessDate": "2025:08:20 23:06:13+10:00", "FileCreateDate": "2025:08:20 17:45:14+10:00", "FilePermissions": 100666, "FileType": "MP4", "FileTypeExtension": "MP4", "MIMEType": "video/mp4", "MajorBrand": "isom", "MinorVersion": "0.2.0", "CompatibleBrands": ["isom", "iso2", "avc1", "mp41"], "MediaDataSize": 4247615, "MediaDataOffset": 48, "MovieHeaderVersion": 0, "CreateDate": "0000:00:00 00:00:00", "ModifyDate": "0000:00:00 00:00:00", "TimeScale": 1000, "Duration": 10.024, "PreferredRate": 1, "PreferredVolume": 1, "PreviewTime": 0, "PreviewDuration": 0, "PosterTime": 0, "SelectionTime": 0, "SelectionDuration": 0, "CurrentTime": 0, "NextTrackID": 3, "TrackHeaderVersion": 0, "TrackCreateDate": "0000:00:00 00:00:00", "TrackModifyDate": "0000:00:00 00:00:00", "TrackID": 1, "TrackDuration": 10.011, "TrackLayer": 0, "TrackVolume": 0, "ImageWidth": 1920, "ImageHeight": 1080, "GraphicsMode": 0, "OpColor": "0 0 0", "CompressorID": "avc1", "SourceImageWidth": 1920, "SourceImageHeight": 1080, "XResolution": 72, "YResolution": 72, "BitDepth": 24, "PixelAspectRatio": "1:1", "VideoFrameRate": 29.9685, "MatrixStructure": "1 0 0 0 1 0 0 0 1", "MediaHeaderVersion": 0, "MediaCreateDate": "0000:00:00 00:00:00", "MediaModifyDate": "0000:00:00 00:00:00", "MediaTimeScale": 44100, "MediaDuration": 10.0232199546485, "MediaLanguageCode": "und", "HandlerDescription": "SoundHandler", "Balance": 0, "AudioFormat": "mp4a", "AudioChannels": 2, "AudioBitsPerSample": 16, "AudioSampleRate": 44100, "HandlerType": "mdir", "HandlerVendorID": "appl", "Encoder": "Lavf57.71.100", "ImageSize": "1920 1080", "Megapixels": 2.0736, "AvgBitrate": 3389956, "Rotation": 0}, "summary": {"width": 1920, "height": 1080, "fps": 29.9685, "codec": "h264", "duration_s": 10.010511, "nb_streams": 2}, "when": "2025-08-20T13:06:13Z", "tool_versions": {"ingest": "ingest.v2"}}
{"sha256": "d217e934086388f39af5e41d0647a08f4a81249083a8ec362a9c9991885897ca", "stored_path": "C:\\Users\\jinoh\\Downloads\\personal projects\\Blackline-AI-Forensic-Tool-for-Detecting-Deepfake-and-Synthetic-Media\\data\\raw\\d217e934086388f39af5e41d0647a08f4a81249083a8ec362a9c9991885897ca\\ajiyrjfyzp.mp4", "mime": "video/mp4", "probe": {"streams": [{"index": 0, "codec_name": "h264", "codec_long_name": "H.264 / AVC / MPEG-4 AVC / MPEG-4 part 10", "profile": "High", "codec_type": "video", "codec_tag_string": "avc1", "codec_tag": "0x31637661", "width": 1920, "height": 1080, "coded_width": 1920, "coded_height": 1080, "closed_captions": 0, "film_grain": 0, "has_b_frames": 2, "pix_fmt": "yuv420p", "level": 40, "chroma_location": "left", "field_order": "progressive", "refs": 1, "is_avc": "true", "nal_length_size": "4", "id": "0x1", "r_frame_rate": "299689/10000", "avg_frame_rate": "299689/10000", "time_base": "1/299689", "start_pts": 0, "start_time": "0.000000", "duration_ts": 3000000, "duration": "10.010377", "bit_rate": "3946658", "bits_per_raw_sample": "8", "nb_frames": "300", "extradata_size": 41, "disposition": {"default": 1, "dub": 0, "original": 0, "comment": 0, "lyrics": 0, "karaoke": 0, "forced": 0, "hearing_impaired": 0, "visual_impaired": 0, "clean_effects": 0, "attached_pic": 0, "timed_thumbnails": 0, "non_diegetic": 0, "captions": 0, "descriptions": 0, "metadata": 0, "dependent": 0, "still_image": 0, "multilayer": 0}, "tags": {"language": "und", "handler_name": "VideoHandler", "vendor_id": "[0][0][0][0]"}}, {"index": 1, "codec_name": "aac", "codec_long_name": "AAC (Advanced Audio Coding)", "profile": "LC", "codec_type": "audio", "codec_tag_string": "mp4a", "codec_tag": "0x6134706d", "sample_fmt": "fltp", "sample_rate": "44100", "channels": 1, "channel_layout": "mono", "bits_per_sample": 0, "initial_padding": 0, "id": "0x2", "r_frame_rate": "0/0", "avg_frame_rate": "0/0", "time_base": "1/44100", "start_pts": 0, "start_time": "0.000000", "duration_ts": 441000, "duration": "10.000000", "bit_rate": "69276", "nb_frames": "432", "extradata_size": 5, "disposition": {"default": 1, "dub": 0, "original": 0, "comment": 0, "lyrics": 0, "karaoke": 0, "forced": 0, "hearing_impaired": 0, "visual_impaired": 0, "clean_effects": 0, "attached_pic": 0, "timed_thumbnails": 0, "non_diegetic": 0, "captions": 0, "descriptions": 0, "metadata": 0, "dependent": 0, "still_image": 0, "multilayer": 0}, "tags": {"language": "und", "handler_name": "SoundHandler", "vendor_id": "[0][0][0][0]"}}], "format": {"filename": "C:\\Users\\jinoh\\Downloads\\personal projects\\Blackline-AI-Forensic-Tool-for-Detecting-Deepfake-and-Synthetic-Media\\data\\raw\\d217e934086388f39af5e41d0647a08f4a81249083a8ec362a9c9991885897ca\\ajiyrjfyzp.mp4", "nb_streams": 2, "nb_programs": 0, "nb_stream_groups": 0, "format_name": "mov,mp4,m4a,3gp,3g2,mj2", "format_long_name": "QuickTime / MOV", "start_time": "0.000000", "duration": "10.010377", "size": "5037365", "bit_rate": "4025714", "probe_score": 100, "tags": {"major_brand": "isom", "minor_version": "512", "compatible_brands": "isomiso2avc1mp41", "encoder": "Lavf57.71.100"}}}, "exif": {"SourceFile": "C:/Users/jinoh/Downloads/personal projects/Blackline-AI-Forensic-Tool-for-Detecting-Deepfake-and-Synthetic-Media/data/raw/d217e934086388f39af5e41d0647a08f4a81249083a8ec362a9c9991885897ca/ajiyrjfyzp.mp4", "ExifToolVersion": 13.34, "FileName": "ajiyrjfyzp.mp4", "Directory": "C:/Users/jinoh/Downloads/personal projects/Blackline-AI-Forensic-Tool-for-Detecting-Deepfake-and-Synthetic-Media/data/raw/d217e934086388f39af5e41d0647a08f4a81249083a8ec362a9c9991885897ca", "FileSize": 5037365, "ZoneIdentifier": "Exists", "FileModifyDate": "2025:08:19 19:54:09+10:00", "FileAccessDate": "2025:08:20 23:06:13+10:00", "FileCreateDate": "2025:08:20 17:45:50+10:00", "FilePermissions": 100666, "FileType": "MP4", "FileTypeExtension": "MP4", "MIMEType": "video/mp4", "MajorBrand": "isom", "MinorVersion": "0.2.0", "CompatibleBrands": ["isom", "iso2", "avc1", "mp41"], "MediaDataSize": 5025240, "MediaDataOffset": 48, "MovieHeaderVersion": 0, "CreateDate": "0000:00:00 00:00:00", "ModifyDate": "0000:00:00 00:00:00", "TimeScale": 1000, "Duration": 10.024, "PreferredRate": 1, "PreferredVolume": 1, "PreviewTime": 0, "PreviewDuration": 0, "PosterTime": 0, "SelectionTime": 0, "SelectionDuration": 0, "CurrentTime": 0, "NextTrackID": 3, "TrackHeaderVersion": 0, "TrackCreateDate": "0000:00:00 00:00:00", "TrackModifyDate": "0000:00:00 00:00:00", "TrackID": 1, "TrackDuration": 10.011, "TrackLayer": 0, "TrackVolume": 0, "ImageWidth": 1920, "ImageHeight": 1080, "GraphicsMode": 0, "OpColor": "0 0 0", "CompressorID": "avc1", "SourceImageWidth": 1920, "SourceImageHeight": 1080, "XResolution": 72, "YResolution": 72, "BitDepth": 24, "VideoFrameRate": 29.9689, "MatrixStructure": "1 0 0 0 1 0 0 0 1", "MediaHeaderVersion": 0, "MediaCreateDate": "0000:00:00 00:00:00", "MediaModifyDate": "0000:00:00 00:00:00", "MediaTimeScale": 44100, "MediaDuration": 10.0232199546485, "MediaLanguageCode": "und", "HandlerDescription": "SoundHandler", "Balance": 0, "AudioFormat": "mp4a", "AudioChannels": 2, "AudioBitsPerSample": 16, "AudioSampleRate": 44100, "HandlerType": "mdir", "HandlerVendorID": "appl", "Encoder": "Lavf57.71.100", "ImageSize": "1920 1080", "Megapixels": 2.0736, "AvgBitrate": 4010567, "Rotation": 0}, "summary": {"width": 1920, "height": 1080, "fps": 29.9689, "codec": "h264", "duration_s": 10.010377, "nb_streams": 2}, "when": "2025-08-20T13:06:13Z", "tool_versions": {"ingest": "ingest.v2"}}
{"sha256": "818a7ed9066ebb4c9c8f1550ec3158802258a02569a53607804026f2b1344154", "stored_path": "C:\\Users\\jinoh\\Downloads\\personal projects\\Blackline-AI-Forensic-Tool-for-Detecting-Deepfake-and-Synthetic-Media\\data\\raw\\818a7ed9066ebb4c9c8f1550ec3158802258a02569a53607804026f2b1344154\\aktnlyqpah.mp4", "mime": "video/mp4", "probe": {"streams": [{"index": 0, "codec_name": "h264", "codec_long_name": "H.264 / AVC / MPEG-4 AVC / MPEG-4 part 10", "profile": "High", "codec_type": "video", "codec_tag_string": "avc1", "codec_tag": "0x31637661", "width": 1920, "height": 1080, "coded_width": 1920, "coded_height": 1080, "closed_captions": 0, "film_grain": 0, "has_b_frames": 2, "sample_aspect_ratio": "1:1", "display_aspect_ratio": "16:9", "pix_fmt": "yuv420p", "level": 40, "chroma_location": "left", "field_order": "progressive", "refs": 1, "is_avc": "true", "nal_length_size": "4", "id": "0x1", "r_frame_rate": "149843/5000", "avg_frame_rate": "149843/5000", "time_base": "1/149843", "start_pts": 0, "start_time": "0.000000", "duration_ts": 1500000, "duration": "10.010478", "bit_rate": "2709923", "bits_per_raw_sample": "8", "nb_frames": "300", "extradata_size": 42, "disposition": {"default": 1, "dub": 0, "original": 0, "comment": 0, "lyrics": 0, "karaoke": 0, "forced": 0, "hearing_impaired": 0, "visual_impaired": 0, "clean_effects": 0, "attached_pic": 0, "timed_thumbnails": 0, "non_diegetic": 0, "captions": 0, "descriptions": 0, "metadata": 0, "dependent": 0, "still_image": 0, "multilayer": 0}, "tags": {"language": "und", "handler_name": "VideoHandler", "vendor_id": "[0][0][0][0]"}}, {"index": 1, "codec_name": "aac", "codec_long_name": "AAC (Advanced Audio Coding)", "profile": "LC", "codec_type": "audio", "codec_tag_string": "mp4a", "codec_tag": "0x6134706d", "sample_fmt": "fltp", "sample_rate": "44100", "channels": 1, "channel_layout": "mono", "bits_per_sample": 0, "initial_padding": 0, "id": "0x2", "r_frame_rate": "0/0", "avg_frame_rate": "0/0", "time_base": "1/44100", "start_pts": 0, "start_time": "0.000000", "duration_ts": 441000, "duration": "10.000000", "bit_rate": "69301", "nb_frames": "432", "extradata_size": 5, "disposition": {"default": 1, "dub": 0, "original": 0, "comment": 0, "lyrics": 0, "karaoke": 0, "forced": 0, "hearing_impaired": 0, "visual_impaired": 0, "clean_effects": 0, "attached_pic": 0, "timed_thumbnails": 0, "non_diegetic": 0, "captions": 0, "descriptions": 0, "metadata": 0, "dependent": 0, "still_image": 0, "multilayer": 0}, "tags": {"language": "und", "handler_name": "SoundHandler", "vendor_id": "[0][0][0][0]"}}], "format": {"filename": "C:\\Users\\jinoh\\Downloads\\personal projects\\Blackline-AI-Forensic-Tool-for-Detecting-Deepfake-and-Synthetic-Media\\data\\raw\\818a7ed9066ebb4c9c8f1550ec3158802258a02569a53607804026f2b1344154\\aktnlyqpah.mp4", "nb_streams": 2, "nb_programs": 0, "nb_stream_groups": 0, "format_name": "mov,mp4,m4a,3gp,3g2,mj2", "format_long_name": "QuickTime / MOV", "start_time": "0.000000", "duration": "10.010478", "size": "3489948", "bit_rate": "2789036", "probe_score": 100, "tags": {"major_brand": "isom", "minor_version": "512", "compatible_brands": "isomiso2avc1mp41", "encoder": "Lavf57.71.100"}}}, "exif": {"SourceFile": "C:/Users/jinoh/Downloads/personal projects/Blackline-AI-Forensic-Tool-for-Detecting-Deepfake-and-Synthetic-Media/data/raw/818a7ed9066ebb4c9c8f1550ec3158802258a02569a53607804026f2b1344154/aktnlyqpah.mp4", "ExifToolVersion": 13.34, "FileName": "aktnlyqpah.mp4", "Directory": "C:/Users/jinoh/Downloads/personal projects/Blackline-AI-Forensic-Tool-for-Detecting-Deepfake-and-Synthetic-Media/data/raw/818a7ed9066ebb4c9c8f1550ec3158802258a02569a53607804026f2b1344154", "FileSize": 3489948, "ZoneIdentifier": "Exists", "FileModifyDate": "2025:08:19 19:54:09+10:00", "FileAccessDate": "2025:08:20 23:06:13+10:00", "FileCreateDate": "2025:08:20 17:45:32+10:00", "FilePermissions": 100666, "FileType": "MP4", "FileTypeExtension": "MP4", "MIMEType": "video/mp4", "MajorBrand": "isom", "MinorVersion": "0.2.0", "CompatibleBrands": ["isom", "iso2", "avc1", "mp41"], "MediaDataSize": 3477782, "MediaDataOffset": 48, "MovieHeaderVersion": 0, "CreateDate": "0000:00:00 00:00:00", "ModifyDate": "0000:00:00 00:00:00", "TimeScale": 1000, "Duration": 10.024, "PreferredRate": 1, "PreferredVolume": 1, "PreviewTime": 0, "PreviewDuration": 0, "PosterTime": 0, "SelectionTime": 0, "SelectionDuration": 0, "CurrentTime": 0, "NextTrackID": 3, "TrackHeaderVersion": 0, "TrackCreateDate": "0000:00:00 00:00:00", "TrackModifyDate": "0000:00:00 00:00:00", "TrackID": 1, "TrackDuration": 10.011, "TrackLayer": 0, "TrackVolume": 0, "ImageWidth": 1920, "ImageHeight": 1080, "GraphicsMode": 0, "OpColor": "0 0 0", "CompressorID": "avc1", "SourceImageWidth": 1920, "SourceImageHeight": 1080, "XResolution": 72, "YResolution": 72, "BitDepth": 24, "PixelAspectRatio": "1:1", "VideoFrameRate": 29.9686, "MatrixStructure": "1 0 0 0 1 0 0 0 1", "MediaHeaderVersion": 0, "MediaCreateDate": "0000:00:00 00:00:00", "MediaModifyDate": "0000:00:00 00:00:00", "MediaTimeScale": 44100, "MediaDuration": 10.0232199546485, "MediaLanguageCode": "und", "HandlerDescription": "SoundHandler", "Balance": 0, "AudioFormat": "mp4a", "AudioChannels": 2, "AudioBitsPerSample": 16, "AudioSampleRate": 44100, "HandlerType": "mdir", "HandlerVendorID": "appl", "Encoder": "Lavf57.71.100", "ImageSize": "1920 1080", "Megapixels": 2.0736, "AvgBitrate": 2775564, "Rotation": 0}, "summary": {"width": 1920, "height": 1080, "fps": 29.9686, "codec": "h264", "duration_s": 10.010478, "nb_streams": 2}, "when": "2025-08-20T13:06:13Z", "tool_versions": {"ingest": "ingest.v2"}}
{"sha256": "6357692ff172bdabf97eb40f7caa82329e06c07ace00857f630aa52ba7f9327e", "stored_path": "C:\\Users\\jinoh\\Downloads\\personal projects\\Blackline-AI-Forensic-Tool-for-Detecting-Deepfake-and-Synthetic-Media\\data\\raw\\6357692ff172bdabf97eb40f7caa82329e06c07ace00857f630aa52ba7f9327e\\alrtntfxtd.mp4", "mime": "video/mp4", "probe": {"streams": [{"index": 0, "codec_name": "h264", "codec_long_name": "H.264 / AVC / MPEG-4 AVC / MPEG-4 part 10", "profile": "High", "codec_type": "video", "codec_tag_string": "avc1", "codec_tag": "0x31637661", "width": 1920, "height": 1080, "coded_width": 1920, "coded_height": 1080, "closed_captions": 0, "film_grain": 0, "has_b_frames": 2, "sample_aspect_ratio": "1:1", "display_aspect_ratio": "16:9", "pix_fmt": "yuv420p", "level": 40, "chroma_location": "left", "field_order": "progressive", "refs": 1, "is_avc": "true", "nal_length_size": "4", "id": "0x1", "r_frame_rate": "299927/10000", "avg_frame_rate": "299927/10000", "time_base": "1/299927", "start_pts": 0, "start_time": "0.000000", "duration_ts": 3000000, "duration": "10.002434", "bit_rate": "4546471", "bits_per_raw_sample": "8", "nb_frames": "300", "extradata_size": 42, "disposition": {"default": 1, "dub": 0, "original": 0, "comment": 0, "lyrics": 0, "karaoke": 0, "forced": 0, "hearing_impaired": 0, "visual_impaired": 0, "clean_effects": 0, "attached_pic": 0, "timed_thumbnails": 0, "non_diegetic": 0, "captions": 0, "descriptions": 0, "metadata": 0, "dependent": 0, "still_image": 0, "multilayer": 0}, "tags": {"language": "und", "handler_name": "VideoHandler", "vendor_id": "[0][0][0][0]"}}, {"index": 1, "codec_name": "aac", "codec_long_name": "AAC (Advanced Audio Coding)", "profile": "LC", "codec_type": "audio", "codec_tag_string": "mp4a", "codec_tag": "0x6134706d", "sample_fmt": "fltp", "sample_rate": "48000", "channels": 1, "channel_layout": "mono", "bits_per_sample": 0, "initial_padding": 0, "id": "0x2", "r_frame_rate": "0/0", "avg_frame_rate": "0/0", "time_base": "1/48000", "start_pts": 0, "start_time": "0.000000", "duration_ts": 480000, "duration": "10.000000", "bit_rate": "69286", "nb_frames": "470", "extradata_size": 5, "disposition": {"default": 1, "dub": 0, "original": 0, "comment": 0, "lyrics": 0, "karaoke": 0, "forced": 0, "hearing_impaired": 0, "visual_impaired": 0, "clean_effects": 0, "attached_pic": 0, "timed_thumbnails": 0, "non_diegetic": 0, "captions": 0, "descriptions": 0, "metadata": 0, "dependent": 0, "still_image": 0, "multilayer": 0}, "tags": {"language": "und", "handler_name": "SoundHandler", "vendor_id": "[0][0][0][0]"}}], "format": {"filename": "C:\\Users\\jinoh\\Downloads\\personal projects\\Blackline-AI-Forensic-Tool-for-Detecting-Deepfake-and-Synthetic-Media\\data\\raw\\6357692ff172bdabf97eb40f7caa82329e06c07ace00857f630aa52ba7f9327e\\alrtntfxtd.mp4", "nb_streams": 2, "nb_programs": 0, "nb_stream_groups": 0, "format_name": "mov,mp4,m4a,3gp,3g2,mj2", "format_long_name": "QuickTime / MOV", "start_time": "0.000000", "duration": "10.002434", "size": "5783600", "bit_rate": "4625754", "probe_score": 100, "tags": {"major_brand": "isom", "minor_version": "512", "compatible_brands": "isomiso2avc1mp41", "encoder": "Lavf57.71.100"}}}, "exif": {"SourceFile": "C:/Users/jinoh/Downloads/personal projects/Blackline-AI-Forensic-Tool-for-Detecting-Deepfake-and-Synthetic-Media/data/raw/6357692ff172bdabf97eb40f7caa82329e06c07ace00857f630aa52ba7f9327e/alrtntfxtd.mp4", "ExifToolVersion": 13.34, "FileName": "alrtntfxtd.mp4", "Directory": "C:/Users/jinoh/Downloads/personal projects/Blackline-AI-Forensic-Tool-for-Detecting-Deepfake-and-Synthetic-Media/data/raw/6357692ff172bdabf97eb40f7caa82329e06c07ace00857f630aa52ba7f9327e", "FileSize": 5783600, "ZoneIdentifier": "Exists", "FileModifyDate": "2025:08:19 19:54:10+10:00", "FileAccessDate": "2025:08:20 23:06:14+10:00", "FileCreateDate": "2025:08:20 17:45:27+10:00", "FilePermissions": 100666, "FileType": "MP4", "FileTypeExtension": "MP4", "MIMEType": "video/mp4", "MajorBrand": "isom", "MinorVersion": "0.2.0", "CompatibleBrands": ["isom", "iso2", "avc1", "mp41"], "MediaDataSize": 5771266, "MediaDataOffset": 48, "MovieHeaderVersion": 0, "CreateDate": "0000:00:00 00:00:00", "ModifyDate": "0000:00:00 00:00:00", "TimeScale": 1000, "Duration": 10.022, "PreferredRate": 1, "PreferredVolume": 1, "PreviewTime": 0, "PreviewDuration": 0, "PosterTime": 0, "SelectionTime": 0, "SelectionDuration": 0, "CurrentTime": 0, "NextTrackID": 3, "TrackHeaderVersion": 0, "TrackCreateDate": "0000:00:00 00:00:00", "TrackModifyDate": "0000:00:00 00:00:00", "TrackID": 1, "TrackDuration": 10.003, "TrackLayer": 0, "TrackVolume": 0, "ImageWidth": 1920, "ImageHeight": 1080, "GraphicsMode": 0, "OpColor": "0 0 0", "CompressorID": "avc1", "SourceImageWidth": 1920, "SourceImageHeight": 1080, "XResolution": 72, "YResolution": 72, "BitDepth": 24, "PixelAspectRatio": "1:1", "VideoFrameRate": 29.9927, "MatrixStructure": "1 0 0 0 1 0 0 0 1", "MediaHeaderVersion": 0, "MediaCreateDate": "0000:00:00 00:00:00", "MediaModifyDate": "0000:00:00 00:00:00", "MediaTimeScale": 48000, "MediaDuration": 10.0213333333333, "MediaLanguageCode": "und", "HandlerDescription": "SoundHandler", "Balance": 0, "AudioFormat": "mp4a", "AudioChannels": 2, "AudioBitsPerSample": 16, "AudioSampleRate": 48000, "HandlerType": "mdir", "HandlerVendorID": "appl", "Encoder": "Lavf57.71.100", "ImageSize": "1920 1080", "Megapixels": 2.0736, "AvgBitrate": 4606878, "Rotation": 0}, "summary": {"width": 1920, "height": 1080, "fps": 29.9927, "codec": "h264", "duration_s": 10.002434, "nb_streams": 2}, "when": "2025-08-20T13:06:14Z", "tool_versions": {"ingest": "ingest.v2"}}
{"sha256": "15a5c8e2b385b7150f3f451210bab580a191a411a26624f401b70045082db4e2", "stored_path": "C:\\Users\\jinoh\\Downloads\\personal projects\\Blackline-AI-Forensic-Tool-for-Detecting-Deepfake-and-Synthetic-Media\\data\\raw\\15a5c8e2b385b7150f3f451210bab580a191a411a26624f401b70045082db4e2\\aomqqjipcp.mp4", "mime": "video/mp4", "probe": {"streams": [{"index": 0, "codec_name": "h264", "codec_long_name": "H.264 / AVC / MPEG-4 AVC / MPEG-4 part 10", "profile": "High", "codec_type": "video", "codec_tag_string": "avc1", "codec_tag": "0x31637661", "width": 1920, "height": 1080, "coded_width": 1920, "coded_height": 1080, "closed_captions": 0, "film_grain": 0, "has_b_frames": 2, "sample_aspect_ratio": "1:1", "display_aspect_ratio": "16:9", "pix_fmt": "yuv420p", "level": 40, "chroma_location": "left", "field_order": "progressive", "refs": 1, "is_avc": "true", "nal_length_size": "4", "id": "0x1", "r_frame_rate": "298799/10000", "avg_frame_rate": "298799/10000", "time_base": "1/298799", "start_pts": 0, "start_time": "0.000000", "duration_ts": 2990000, "duration": "10.006727", "bit_rate": "6582287", "bits_per_raw_sample": "8", "nb_frames": "299", "extradata_size": 42, "disposition": {"default": 1, "dub": 0, "original": 0, "comment": 0, "lyrics": 0, "karaoke": 0, "forced": 0, "hearing_impaired": 0, "visual_impaired": 0, "clean_effects": 0, "attached_pic": 0, "timed_thumbnails": 0, "non_diegetic": 0, "captions": 0, "descriptions": 0, "metadata": 0, "dependent": 0, "still_image": 0, "multilayer": 0}, "tags": {"language": "und", "handler_name": "VideoHandler", "vendor_id": "[0][0][0][0]"}}, {"index": 1, "codec_name": "aac", "codec_long_name": "AAC (Advanced Audio Coding)", "profile": "LC", "codec_type": "audio", "codec_tag_string": "mp4a", "codec_tag": "0x6134706d", "sample_fmt": "fltp", "sample_rate": "48000", "channels": 1, "channel_layout": "mono", "bits_per_sample": 0, "initial_padding": 0, "id": "0x2", "r_frame_rate": "0/0", "avg_frame_rate": "0/0", "time_base": "1/48000", "start_pts": 0, "start_time": "0.000000", "duration_ts": 480000, "duration": "10.000000", "bit_rate": "69260", "nb_frames": "470", "extradata_size": 5, "disposition": {"default": 1, "dub": 0, "original": 0, "comment": 0, "lyrics": 0, "karaoke": 0, "forced": 0, "hearing_impaired": 0, "visual_impaired": 0, "clean_effects": 0, "attached_pic": 0, "timed_thumbnails": 0, "non_diegetic": 0, "captions": 0, "descriptions": 0, "metadata": 0, "dependent": 0, "still_image": 0, "multilayer": 0}, "tags": {"language": "und", "handler_name": "SoundHandler", "vendor_id": "[0][0][0][0]"}}], "format": {"filename": "C:\\Users\\jinoh\\Downloads\\personal projects\\Blackline-AI-Forensic-Tool-for-Detecting-Deepfake-and-Synthetic-Media\\data\\raw\\15a5c8e2b385b7150f3f451210bab580a191a411a26624f401b70045082db4e2\\aomqqjipcp.mp4", "nb_streams": 2, "nb_programs": 0, "nb_stream_groups": 0, "format_name": "mov,mp4,m4a,3gp,3g2,mj2", "format_long_name": "QuickTime / MOV", "start_time": "0.000000", "duration": "10.006727", "size": "8332416", "bit_rate": "6661451", "probe_score": 100, "tags": {"major_brand": "isom", "minor_version": "512", "compatible_brands": "isomiso2avc1mp41", "encoder": "Lavf57.71.100"}}}, "exif": {"SourceFile": "C:/Users/jinoh/Downloads/personal projects/Blackline-AI-Forensic-Tool-for-Detecting-Deepfake-and-Synthetic-Media/data/raw/15a5c8e2b385b7150f3f451210bab580a191a411a26624f401b70045082db4e2/aomqqjipcp.mp4", "ExifToolVersion": 13.34, "FileName": "aomqqjipcp.mp4", "Directory": "C:/Users/jinoh/Downloads/personal projects/Blackline-AI-Forensic-Tool-for-Detecting-Deepfake-and-Synthetic-Media/data/raw/15a5c8e2b385b7150f3f451210bab580a191a411a26624f401b70045082db4e2", "FileSize": 8332416, "ZoneIdentifier": "Exists", "FileModifyDate": "2025:08:19 19:54:10+10:00", "FileAccessDate": "2025:08:20 23:06:14+10:00", "FileCreateDate": "2025:08:20 17:45:16+10:00", "FilePermissions": 100666, "FileType": "MP4", "FileTypeExtension": "MP4", "MIMEType": "video/mp4", "MajorBrand": "isom", "MinorVersion": "0.2.0", "CompatibleBrands": ["isom", "iso2", "avc1", "mp41"], "MediaDataSize": 8320154, "MediaDataOffset": 48, "MovieHeaderVersion": 0, "CreateDate": "0000:00:00 00:00:00", "ModifyDate": "0000:00:00 00:00:00", "TimeScale": 1000, "Duration": 10.022, "PreferredRate": 1, "PreferredVolume": 1, "PreviewTime": 0, "PreviewDuration": 0, "PosterTime": 0, "SelectionTime": 0, "SelectionDuration": 0, "CurrentTime": 0, "NextTrackID": 3, "TrackHeaderVersion": 0, "TrackCreateDate": "0000:00:00 00:00:00", "TrackModifyDate": "0000:00:00 00:00:00", "TrackID": 1, "TrackDuration": 10.007, "TrackLayer": 0, "TrackVolume": 0, "ImageWidth": 1920, "ImageHeight": 1080, "GraphicsMode": 0, "OpColor": "0 0 0", "CompressorID": "avc1", "SourceImageWidth": 1920, "SourceImageHeight": 1080, "XResolution": 72, "YResolution": 72, "BitDepth": 24, "PixelAspectRatio": "1:1", "VideoFrameRate": 29.8799, "MatrixStructure": "1 0 0 0 1 0 0 0 1", "MediaHeaderVersion": 0, "MediaCreateDate": "0000:00:00 00:00:00", "MediaModifyDate": "0000:00:00 00:00:00", "MediaTimeScale": 48000, "MediaDuration": 10.0213333333333, "MediaLanguageCode": "und", "HandlerDescription": "SoundHandler", "Balance": 0, "AudioFormat": "mp4a", "AudioChannels": 2, "AudioBitsPerSample": 16, "AudioSampleRate": 48000, "HandlerType": "mdir", "HandlerVendorID": "appl", "Encoder": "Lavf57.71.100", "ImageSize": "1920 1080", "Megapixels": 2.0736, "AvgBitrate": 6641512, "Rotation": 0}, "summary": {"width": 1920, "height": 1080, "fps": 29.8799, "codec": "h264", "duration_s": 10.006727, "nb_streams": 2}, "when": "2025-08-20T13:06:14Z", "tool_versions": {"ingest": "ingest.v2"}}
{"sha256": "354d3054088cdaff38a77b6f715be1d41d399d805b3349e7f36a1f880846580b", "stored_path": "C:\\Users\\jinoh\\Downloads\\personal projects\\Blackline-AI-Forensic-Tool-for-Detecting-Deepfake-and-Synthetic-Media\\data\\raw\\354d3054088cdaff38a77b6f715be1d41d399d805b3349e7f36a1f880846580b\\apedduehoy.mp4", "mime": "video/mp4", "probe": {"streams": [{"index": 0, "codec_name": "h264", "codec_long_name": "H.264 / AVC / MPEG-4 AVC / MPEG-4 part 10", "profile": "High", "codec_type": "video", "codec_tag_string": "avc1", "codec_tag": "0x31637661", "width": 1080, "height": 1920, "coded_width": 1080, "coded_height": 1920, "closed_captions": 0, "film_grain": 0, "has_b_frames": 2, "pix_fmt": "yuv420p", "level": 40, "chroma_location": "left", "field_order": "progressive", "refs": 1, "is_avc": "true", "nal_length_size": "4", "id": "0x1", "r_frame_rate": "29969/1000", "avg_frame_rate": "29969/1000", "time_base": "1/29969", "start_pts": 0, "start_time": "0.000000", "duration_ts": 300000, "duration": "10.010344", "bit_rate": "6686461", "bits_per_raw_sample": "8", "nb_frames": "300", "extradata_size": 41, "disposition": {"default": 1, "dub": 0, "original": 0, "comment": 0, "lyrics": 0, "karaoke": 0, "forced": 0, "hearing_impaired": 0, "visual_impaired": 0, "clean_effects": 0, "attached_pic": 0, "timed_thumbnails": 0, "non_diegetic": 0, "captions": 0, "descriptions": 0, "metadata": 0, "dependent": 0, "still_image": 0, "multilayer": 0}, "tags": {"language": "und", "handler_name": "VideoHandler", "vendor_id": "[0][0][0][0]"}}, {"index": 1, "codec_name": "aac", "codec_long_name": "AAC (Advanced Audio Coding)", "profile": "LC", "codec_type": "audio", "codec_tag_string": "mp4a", "codec_tag": "0x6134706d", "sample_fmt": "fltp", "sample_rate": "44100", "channels": 1, "channel_layout": "mono", "bits_per_sample": 0, "initial_padding": 0, "id": "0x2", "r_frame_rate": "0/0", "avg_frame_rate": "0/0", "time_base": "1/44100", "start_pts": 0, "start_time": "0.000000", "duration_ts": 441000, "duration": "10.000000", "bit_rate": "69291", "nb_frames": "432", "extradata_size": 5, "disposition": {"default": 1, "dub": 0, "original": 0, "comment": 0, "lyrics": 0, "karaoke": 0, "forced": 0, "hearing_impaired": 0, "visual_impaired": 0, "clean_effects": 0, "attached_pic": 0, "timed_thumbnails": 0, "non_diegetic": 0, "captions": 0, "descriptions": 0, "metadata": 0, "dependent": 0, "still_image": 0, "multilayer": 0}, "tags": {"language": "und", "handler_name": "SoundHandler", "vendor_id": "[0][0][0][0]"}}], "format": {"filename": "C:\\Users\\jinoh\\Downloads\\personal projects\\Blackline-AI-Forensic-Tool-for-Detecting-Deepfake-and-Synthetic-Media\\data\\raw\\354d3054088cdaff38a77b6f715be1d41d399d805b3349e7f36a1f880846580b\\apedduehoy.mp4", "nb_streams": 2, "nb_programs": 0, "nb_stream_groups": 0, "format_name": "mov,mp4,m4a,3gp,3g2,mj2", "format_long_name": "QuickTime / MOV", "start_time": "0.000000", "duration": "10.010344", "size": "8465712", "bit_rate": "6765571", "probe_score": 100, "tags": {"major_brand": "isom", "minor_version": "512", "compatible_brands": "isomiso2avc1mp41", "encoder": "Lavf57.71.100"}}}, "exif": {"SourceFile": "C:/Users/jinoh/Downloads/personal projects/Blackline-AI-Forensic-Tool-for-Detecting-Deepfake-and-Synthetic-Media/data/raw/354d3054088cdaff38a77b6f715be1d41d399d805b3349e7f36a1f880846580b/apedduehoy.mp4", "ExifToolVersion": 13.34, "FileName": "apedduehoy.mp4", "Directory": "C:/Users/jinoh/Downloads/personal projects/Blackline-AI-Forensic-Tool-for-Detecting-Deepfake-and-Synthetic-Media/data/raw/354d3054088cdaff38a77b6f715be1d41d399d805b3349e7f36a1f880846580b", "FileSize": 8465712, "ZoneIdentifier": "Exists", "FileModifyDate": "2025:08:19 19:54:10+10:00", "FileAccessDate": "2025:08:20 23:06:14+10:00", "FileCreateDate": "2025:08:20 17:45:21+10:00", "FilePermissions": 100666, "FileType": "MP4", "FileTypeExtension": "MP4", "MIMEType": "video/mp4", "MajorBrand": "isom", "MinorVersion": "0.2.0", "CompatibleBrands": ["isom", "iso2", "avc1", "mp41"], "MediaDataSize": 8453539, "MediaDataOffset": 48, "MovieHeaderVersion": 0, "CreateDate": "0000:00:00 00:00:00", "ModifyDate": "0000:00:00 00:00:00", "TimeScale": 1000, "Duration": 10.024, "PreferredRate": 1, "PreferredVolume": 1, "PreviewTime": 0, "PreviewDuration": 0, "PosterTime": 0, "SelectionTime": 0, "SelectionDuration": 0, "CurrentTime": 0, "NextTrackID": 3, "TrackHeaderVersion": 0, "TrackCreateDate": "0000:00:00 00:00:00", "TrackModifyDate": "0000:00:00 00:00:00", "TrackID": 1, "TrackDuration": 10.011, "TrackLayer": 0, "TrackVolume": 0, "ImageWidth": 1080, "ImageHeight": 1920, "GraphicsMode": 0, "OpColor": "0 0 0", "CompressorID": "avc1", "SourceImageWidth": 1080, "SourceImageHeight": 1920, "XResolution": 72, "YResolution": 72, "BitDepth": 24, "VideoFrameRate": 29.969, "MatrixStructure": "1 0 0 0 1 0 0 0 1", "MediaHeaderVersion": 0, "MediaCreateDate": "0000:00:00 00:00:00", "MediaModifyDate": "0000:00:00 00:00:00", "MediaTimeScale": 44100, "MediaDuration": 10.0232199546485, "MediaLanguageCode": "und", "HandlerDescription": "SoundHandler", "Balance": 0, "AudioFormat": "mp4a", "AudioChannels": 2, "AudioBitsPerSample": 16, "AudioSampleRate": 44100, "HandlerType": "mdir", "HandlerVendorID": "appl", "Encoder": "Lavf57.71.100", "ImageSize": "1080 1920", "Megapixels": 2.0736, "AvgBitrate": 6746639, "Rotation": 0}, "summary": {"width": 1080, "height": 1920, "fps": 29.969, "codec": "h264", "duration_s": 10.010344, "nb_streams": 2}, "when": "2025-08-20T13:06:14Z", "tool_versions": {"ingest": "ingest.v2"}}
